# xmcd
# 
# Track frame offsets:
#     225
#     22507
#     56407
#     77556
#     119079
#     153522
#     156535
#     165085
#     171583
#     201181
#     207107
#     209744
#     232798
# 
# Disc length: 3227
# 
# Revision: 1
# Processed by: cddbd v1.5.2PL0 Copyright (c) Steve Scherf et al.
# Submitted via: BonkEnc v1.0.8
# 
DISCID=a70c980d
DTITLE=Bert Turetzky - Transition and Transformation
DYEAR=2000
DGENRE=Contemporary Jazz
TTITLE0=A Major Decision
TTITLE1=Tmalpais
TTITLE2=A Heated Discussion
TTITLE3=Eclipse
TTITLE4=Mysterioso
TTITLE5=Short Subject I
TTITLE6=Short Subject II
TTITLE7=Short Subject III
TTITLE8=Ugly Beauty
TTITLE9=Paper Trail
TTITLE10=TRT
TTITLE11=Slow Movement
TTITLE12=Vocalese
EXTD=YEAR: 2001
EXTT0=
EXTT1=
EXTT2=
EXTT3=
EXTT4=
EXTT5=
EXTT6=
EXTT7=
EXTT8=
EXTT9=
EXTT10=
EXTT11=
EXTT12=
PLAYORDER=
